<svg height="512" viewBox="0 0 64 64" width="512" xmlns="http://www.w3.org/2000/svg"><g id="World_Wide_Web-Computer-Web_Development-Domain-Internet" data-name="World Wide Web-Computer-Web Development-Domain-Internet"><path d="m54 9v22h-44v-22a2.006 2.006 0 0 1 2-2h40a2.006 2.006 0 0 1 2 2z" fill="#5aaae7"/><path d="m55 57v3a1 1 0 0 1 -1 1h-44a1 1 0 0 1 -1-1v-3z" fill="#acabb1"/><path d="m55 57h-46l6-6h34z" fill="#c6c5ca"/><path d="m54 31v4a2.006 2.006 0 0 1 -2 2h-40a2.006 2.006 0 0 1 -2-2v-4z" fill="#c6c5ca"/><path d="m42 43v4h-20v-4h5 10z" fill="#acabb1"/><path d="m27 37h10v6h-10z" fill="#c6c5ca"/><path d="m27 37h10v2h-10z" fill="#acabb1"/><path d="m16 53h2v2h-2z" fill="#acabb1"/><path d="m20 53h2v2h-2z" fill="#acabb1"/><path d="m42 53h2v2h-2z" fill="#acabb1"/><path d="m24 53h16v2h-16z" fill="#acabb1"/><path d="m46 53h2v2h-2z" fill="#acabb1"/><path d="m47 33h2v2h-2z" fill="#898890"/><path d="m19 51h-2v-3a1 1 0 0 0 -1-1h-6a3 3 0 0 1 0-6h6a1 1 0 0 0 1-1v-3h2v3a3 3 0 0 1 -3 3h-6a1 1 0 0 0 0 2h6a3 3 0 0 1 3 3z" fill="#d8d7da"/><path d="m45 16a11 11 0 1 1 -19.49-7 11.115 11.115 0 0 1 .94-1 11.681 11.681 0 0 1 1.23-1h12.65a11.8 11.8 0 0 1 1.22 1 11.115 11.115 0 0 1 .94 1 10.95 10.95 0 0 1 2.51 7z" fill="#3d9ae2"/><g fill="#00ccb3"><path d="m37 14h6a10.925 10.925 0 0 1 -3.45 8 10.947 10.947 0 0 0 -3.31-2.16 21.642 21.642 0 0 0 .76-5.84z"/><path d="m40.49 7a11.115 11.115 0 0 0 -.94-1 10.544 10.544 0 0 1 -1.23 1 10.554 10.554 0 0 1 -2.08 1.16 21.642 21.642 0 0 1 .76 5.84h6a10.95 10.95 0 0 0 -2.51-7z"/><path d="m32 3c1.55 0 2.94 1.56 3.86 4 .14.37.26.76.38 1.16a10.554 10.554 0 0 0 2.08-1.16 10.544 10.544 0 0 0 1.23-1 10.967 10.967 0 0 0 -7.55-3z"/><path d="m36.24 19.84a10.947 10.947 0 0 1 3.31 2.16 10.967 10.967 0 0 1 -7.55 3c1.79 0 3.35-2.06 4.24-5.16z"/><path d="m37 14h-10a21.642 21.642 0 0 1 .76-5.84 11.057 11.057 0 0 0 4.24.84 11.057 11.057 0 0 0 4.24-.84 21.642 21.642 0 0 1 .76 5.84z"/><path d="m27 14h10a21.642 21.642 0 0 1 -.76 5.84 11.121 11.121 0 0 0 -8.48 0 21.642 21.642 0 0 1 -.76-5.84z"/><path d="m35.86 7c-.92-2.44-2.31-4-3.86-4s-2.94 1.56-3.86 4c-.14.37-.26.76-.38 1.16a11.057 11.057 0 0 0 4.24.84 11.057 11.057 0 0 0 4.24-.84c-.12-.4-.24-.79-.38-1.16z"/><path d="m36.24 19.84c-.89 3.1-2.45 5.16-4.24 5.16s-3.35-2.06-4.24-5.16a11.121 11.121 0 0 1 8.48 0z"/><path d="m27.76 19.84c.89 3.1 2.45 5.16 4.24 5.16a10.967 10.967 0 0 1 -7.55-3 10.947 10.947 0 0 1 3.31-2.16z"/><path d="m24.45 6a10.544 10.544 0 0 0 1.23 1 10.554 10.554 0 0 0 2.08 1.16c.12-.4.24-.79.38-1.16.92-2.44 2.31-4 3.86-4a10.967 10.967 0 0 0 -7.55 3z"/><path d="m27 14a21.642 21.642 0 0 0 .76 5.84 10.947 10.947 0 0 0 -3.31 2.16 10.925 10.925 0 0 1 -3.45-8z"/><path d="m25.68 7a10.544 10.544 0 0 1 -1.23-1 11.115 11.115 0 0 0 -.94 1 10.95 10.95 0 0 0 -2.51 7h6a21.642 21.642 0 0 1 .76-5.84 10.554 10.554 0 0 1 -2.08-1.16z"/></g><path d="m32 2a12 12 0 1 0 12 12 12.013 12.013 0 0 0 -12-12zm9.949 11h-3.973a22.638 22.638 0 0 0 -.557-4.293 11.811 11.811 0 0 0 2.059-1.323 9.946 9.946 0 0 1 2.471 5.616zm-6.011-8.189a10 10 0 0 1 2.046 1.2 9.976 9.976 0 0 1 -1.145.745 11.953 11.953 0 0 0 -.901-1.945zm-.957 2.738a10.221 10.221 0 0 1 -5.962 0c.788-2.198 1.92-3.549 2.981-3.549s2.193 1.351 2.981 3.549zm-7.82-.8a10.023 10.023 0 0 1 -1.145-.745 10 10 0 0 1 2.046-1.2 11.913 11.913 0 0 0 -.901 1.948zm.9 16.437a10 10 0 0 1 -2.046-1.2 9.976 9.976 0 0 1 1.145-.745 11.953 11.953 0 0 0 .902 1.948zm.957-2.738a10.221 10.221 0 0 1 5.962 0c-.787 2.201-1.919 3.552-2.98 3.552s-2.193-1.351-2.981-3.549zm7.82.8a10.023 10.023 0 0 1 1.145.745 10 10 0 0 1 -2.046 1.2 11.913 11.913 0 0 0 .902-1.945zm-1.315-2.725a12.232 12.232 0 0 0 -7.048 0 20.556 20.556 0 0 1 -.452-3.523h7.954a20.556 20.556 0 0 1 -.453 3.523zm-7.5-5.523a20.557 20.557 0 0 1 .453-3.522 12.046 12.046 0 0 0 3.524.522 12.023 12.023 0 0 0 3.524-.522 20.557 20.557 0 0 1 .453 3.522zm-3.5-5.616a11.891 11.891 0 0 0 2.059 1.323 22.638 22.638 0 0 0 -.558 4.293h-3.973a9.946 9.946 0 0 1 2.471-5.616zm-2.472 7.616h3.973a22.638 22.638 0 0 0 .557 4.293 11.811 11.811 0 0 0 -2.059 1.323 9.946 9.946 0 0 1 -2.471-5.616zm17.427 5.616a11.891 11.891 0 0 0 -2.059-1.323 22.638 22.638 0 0 0 .557-4.293h3.973a9.946 9.946 0 0 1 -2.471 5.616z" fill="#00b39d"/></g></svg>
